<svg width="2352" height="2031" xmlns="http://www.w3.org/2000/svg" xmlns:xlink="http://www.w3.org/1999/xlink" xml:space="preserve" overflow="hidden">
<rect width="2500" height="2500" fill="#222629" fill-opacity="1.0"/>
  <defs>
    <clipPath id="clip0"><rect x="838" y="201" width="2352" height="2031"/></clipPath>
  </defs>
  <g clip-path="url(#clip0)" transform="translate(-838 -201)">
    <path d="M844.5 876.5C844.5 732.354 960.234 615.5 1103 615.5 1245.77 615.5 1361.5 732.354 1361.5 876.5 1361.5 1020.65 1245.77 1137.5 1103 1137.5 960.234 1137.5 844.5 1020.65 844.5 876.5Z" stroke="#AB162C" stroke-width="4.58333" stroke-linecap="butt" stroke-linejoin="miter" stroke-miterlimit="8" stroke-opacity="1" fill="#AB162C" fill-rule="evenodd" fill-opacity="1"/>
    <path d="M0 0 573.31 202.099" stroke="#AB162C" stroke-width="91.6667" stroke-linecap="butt" stroke-linejoin="miter" stroke-miterlimit="8" stroke-opacity="1" fill="none" fill-rule="evenodd" transform="matrix(1 0 0 -1 1251 715.099)"/>
    <path d="M844.5 1559.5C844.5 1415.35 960.234 1298.5 1103 1298.5 1245.77 1298.5 1361.5 1415.35 1361.5 1559.5 1361.5 1703.65 1245.77 1820.5 1103 1820.5 960.234 1820.5 844.5 1703.65 844.5 1559.5Z" stroke="#AB162C" stroke-width="4.58333" stroke-linecap="butt" stroke-linejoin="miter" stroke-miterlimit="8" stroke-opacity="1" fill="#AB162C" fill-rule="evenodd" fill-opacity="1"/>
    <path d="M1825 1218.5C1825 1074.63 1940.73 958 2083.5 958 2226.27 958 2342 1074.63 2342 1218.5 2342 1362.37 2226.27 1479 2083.5 1479 1940.73 1479 1825 1362.37 1825 1218.5Z" stroke="#AB162C" stroke-width="91.6667" stroke-linecap="butt" stroke-linejoin="miter" stroke-miterlimit="8" stroke-opacity="1" fill="none" fill-rule="evenodd"/>
    <path d="M1825 1925.5C1825 1781.63 1940.73 1665 2083.5 1665 2226.27 1665 2342 1781.63 2342 1925.5 2342 2069.37 2226.27 2186 2083.5 2186 1940.73 2186 1825 2069.37 1825 1925.5Z" stroke="#AB162C" stroke-width="91.6667" stroke-linecap="butt" stroke-linejoin="miter" stroke-miterlimit="8" stroke-opacity="1" fill="none" fill-rule="evenodd"/>
    <path d="M1825 512.5C1825 368.63 1940.73 252 2083.5 252 2226.27 252 2342 368.63 2342 512.5 2342 656.37 2226.27 773 2083.5 773 1940.73 773 1825 656.37 1825 512.5Z" stroke="#AB162C" stroke-width="91.6667" stroke-linecap="butt" stroke-linejoin="miter" stroke-miterlimit="8" stroke-opacity="1" fill="none" fill-rule="evenodd"/>
    <path d="M2627 1218.5C2627 1074.63 2742.73 958 2885.5 958 3028.27 958 3144 1074.63 3144 1218.5 3144 1362.37 3028.27 1479 2885.5 1479 2742.73 1479 2627 1362.37 2627 1218.5Z" stroke="#AB162C" stroke-width="91.6667" stroke-linecap="butt" stroke-linejoin="miter" stroke-miterlimit="8" stroke-opacity="1" fill="none" fill-rule="evenodd"/>
    <path d="M1251 818 1824.31 1218.8" stroke="#AB162C" stroke-width="91.6667" stroke-linecap="butt" stroke-linejoin="miter" stroke-miterlimit="8" stroke-opacity="1" fill="none" fill-rule="evenodd"/>
    <path d="M1315 954 1824.14 1925.99" stroke="#AB162C" stroke-width="91.6667" stroke-linecap="butt" stroke-linejoin="miter" stroke-miterlimit="8" stroke-opacity="1" fill="none" fill-rule="evenodd"/>
    <path d="M0 0 573.311 917.782" stroke="#AB162C" stroke-width="91.6667" stroke-linecap="butt" stroke-linejoin="miter" stroke-miterlimit="8" stroke-opacity="1" fill="none" fill-rule="evenodd" transform="matrix(1 0 0 -1 1251 1430.78)"/>
    <path d="M0 0 573.311 394.63" stroke="#AB162C" stroke-width="91.6667" stroke-linecap="butt" stroke-linejoin="miter" stroke-miterlimit="8" stroke-opacity="1" fill="none" fill-rule="evenodd" transform="matrix(1 0 0 -1 1251 1612.63)"/>
    <path d="M1315 1670 1824.14 1925.39" stroke="#AB162C" stroke-width="91.6667" stroke-linecap="butt" stroke-linejoin="miter" stroke-miterlimit="8" stroke-opacity="1" fill="none" fill-rule="evenodd"/>
    <path d="M2342 1218 2626.38 1218" stroke="#AB162C" stroke-width="91.6667" stroke-linecap="butt" stroke-linejoin="miter" stroke-miterlimit="8" stroke-opacity="1" fill="none" fill-rule="evenodd"/>
    <path d="M2342 513 2885.23 958.031" stroke="#AB162C" stroke-width="91.6667" stroke-linecap="butt" stroke-linejoin="miter" stroke-miterlimit="8" stroke-opacity="1" fill="none" fill-rule="evenodd"/>
    <path d="M0 0 543.232 446.686" stroke="#AB162C" stroke-width="91.6667" stroke-linecap="butt" stroke-linejoin="miter" stroke-miterlimit="8" stroke-opacity="1" fill="none" fill-rule="evenodd" transform="matrix(1 0 0 -1 2342 1925.69)"/>
  </g>
</svg>
